<svg xmlns="http://www.w3.org/2000/svg" width="100" height="100" viewBox="0 0 100 100">
  <g id="instagram" transform="translate(-271.112 -333.929)">
    <rect width="100" height="100" transform="translate(271.112 333.929)" fill="none"/>
    <g transform="translate(280.112 342.928)">
      <path d="M36.308,16.7A20.908,20.908,0,1,0,57.217,37.608,20.908,20.908,0,0,0,36.308,16.7Zm0,34.3A13.394,13.394,0,1,1,49.7,37.608,13.394,13.394,0,0,1,36.308,51Z" transform="translate(4.692 3.224)" fill="#1e28be"/>
      <circle cx="4.856" cy="4.856" r="4.856" transform="translate(58.096 14.359)" fill="#1e28be"/>
      <path d="M78.787,11.578C74.489,7.115,68.372,4.8,61.428,4.8H27.372C12.989,4.8,3.4,14.389,3.4,28.772V62.663c0,7.109,2.315,13.226,6.944,17.69,4.464,4.3,10.414,6.448,17.194,6.448H61.263c7.109,0,13.06-2.315,17.359-6.448,4.464-4.3,6.778-10.414,6.778-17.524V28.772C85.4,21.828,83.085,15.877,78.787,11.578Zm-.661,51.25A16.156,16.156,0,0,1,73.331,74.9c-2.976,2.811-7.109,4.3-12.069,4.3H27.537c-4.959,0-9.093-1.488-12.069-4.3C12.492,71.921,11,67.788,11,62.663V28.772c0-4.959,1.488-9.093,4.464-12.069,2.81-2.81,7.109-4.3,12.069-4.3H61.594c4.959,0,9.093,1.488,12.069,4.464a17.056,17.056,0,0,1,4.464,11.9V62.828Z" transform="translate(-3.4 -4.8)" fill="#1e28be"/>
    </g>
  </g>
</svg>
