<svg xmlns="http://www.w3.org/2000/svg" width="100" height="100" viewBox="0 0 100 100">
  <g id="twiiter" transform="translate(-412 -329)">
    <rect data-name="長方形 25" width="100" height="100" transform="translate(412 329)" fill="none"/>
    <path data-name="パス 9442" d="M109.1,72.581a36.916,36.916,0,0,1-10.486,2.885,18.323,18.323,0,0,0,8.034-10.109,36.283,36.283,0,0,1-11.6,4.432A18.254,18.254,0,0,0,63.459,82.275a17.876,17.876,0,0,0,.472,4.168,51.746,51.746,0,0,1-37.647-19.1,18.312,18.312,0,0,0,5.658,24.4,17.821,17.821,0,0,1-8.277-2.282v.226A18.276,18.276,0,0,0,38.322,107.6a18.38,18.38,0,0,1-4.81.64,17.226,17.226,0,0,1-3.433-.339A18.289,18.289,0,0,0,47.148,120.6a36.609,36.609,0,0,1-22.687,7.827,37.012,37.012,0,0,1-4.361-.267,51.148,51.148,0,0,0,27.969,8.261c33.608,0,51.976-27.857,51.976-52.016,0-.792-.019-1.584-.057-2.358A37.48,37.48,0,0,0,109.1,72.581Z" transform="translate(396.9 278.9)"/>
  </g>
</svg>
